<svg width="1438" height="56" viewBox="0 0 1438 56" fill="none" xmlns="http://www.w3.org/2000/svg">
<path d="M61.5723 17.7494C61.5723 8.93531 54.5065 2 45.7997 2C38.7691 2 32.8217 6.76293 30.7844 13.1985C28.7455 6.76377 22.798 2.16575 15.7674 2.16575C7.05888 2.16575 0 8.90334 0 17.7208C0 22.1699 1.8028 25.3132 4.70421 28.6769L30.799 55.1309L56.8638 28.6769C59.7678 25.3132 61.5723 22.1951 61.5723 17.7494Z" fill="#F3F1EC"/>
<path d="M90.8687 17.7494C90.8687 8.93531 83.8599 2 75.2234 2C68.2494 2 62.3499 6.76293 60.3291 13.1985C58.3066 6.76377 52.4072 2.16575 45.4332 2.16575C36.7949 2.16575 29.793 8.90334 29.793 17.7208C29.793 22.1699 31.5812 25.3132 34.4592 28.6769L60.3436 55.1309L86.1982 28.6769C89.0787 25.3132 90.8687 22.1951 90.8687 17.7494Z" fill="#F3F1EC"/>
<path d="M121.655 17.7494C121.655 8.93531 114.76 2 106.264 2C99.4035 2 93.6 6.76293 91.612 13.1985C89.6224 6.76377 83.8189 2.16575 76.9583 2.16575C68.4605 2.16575 61.5724 8.90334 61.5724 17.7208C61.5724 22.1699 63.3316 25.3132 66.1628 28.6769L91.6262 55.1309L117.06 28.6769C119.894 25.3132 121.655 22.1951 121.655 17.7494Z" fill="#F3F1EC"/>
<path d="M152.441 17.7494C152.441 8.93531 145.375 2 136.669 2C129.638 2 123.69 6.76293 121.653 13.1985C119.614 6.76377 113.667 2.16575 106.636 2.16575C97.9277 2.16575 90.8688 8.90334 90.8688 17.7208C90.8688 22.1699 92.6716 25.3132 95.573 28.6769L121.668 55.1309L147.733 28.6769C150.637 25.3132 152.441 22.1951 152.441 17.7494Z" fill="#F3F1EC"/>
<path d="M183.227 17.7494C183.227 8.93531 176.161 2 167.455 2C160.424 2 154.477 6.76293 152.439 13.1985C150.4 6.76377 144.453 2.16575 137.422 2.16575C128.714 2.16575 121.655 8.90334 121.655 17.7208C121.655 22.1699 123.458 25.3132 126.359 28.6769L152.454 55.1309L178.519 28.6769C181.423 25.3132 183.227 22.1951 183.227 17.7494Z" fill="#F3F1EC"/>
<path d="M212.524 17.7494C212.524 8.93531 205.629 2 197.133 2C190.272 2 184.469 6.76293 182.481 13.1985C180.491 6.76377 174.687 2.16575 167.827 2.16575C159.329 2.16575 152.441 8.90334 152.441 17.7208C152.441 22.1699 154.2 25.3132 157.031 28.6769L182.495 55.1309L207.929 28.6769C210.763 25.3132 212.524 22.1951 212.524 17.7494Z" fill="#F3F1EC"/>
<path d="M244.303 17.7494C244.303 8.93531 237.294 2 228.658 2C221.684 2 215.784 6.76293 213.763 13.1985C211.741 6.76377 205.841 2.16575 198.867 2.16575C190.229 2.16575 183.227 8.90334 183.227 17.7208C183.227 22.1699 185.015 25.3132 187.893 28.6769L213.778 55.1309L239.632 28.6769C242.513 25.3132 244.303 22.1951 244.303 17.7494Z" fill="#F3F1EC"/>
<path d="M274.096 17.7494C274.096 8.93531 267.03 2 258.323 2C251.293 2 245.345 6.76293 243.308 13.1985C241.269 6.76377 235.322 2.16575 228.291 2.16575C219.582 2.16575 212.524 8.90334 212.524 17.7208C212.524 22.1699 214.326 25.3132 217.228 28.6769L243.323 55.1309L269.387 28.6769C272.291 25.3132 274.096 22.1951 274.096 17.7494Z" fill="#F3F1EC"/>
<path d="M305.875 17.7494C305.875 8.93531 298.809 2 290.102 2C283.072 2 277.124 6.76293 275.087 13.1985C273.048 6.76377 267.101 2.16575 260.07 2.16575C251.362 2.16575 244.303 8.90334 244.303 17.7208C244.303 22.1699 246.106 25.3132 249.007 28.6769L275.102 55.1309L301.167 28.6769C304.07 25.3132 305.875 22.1951 305.875 17.7494Z" fill="#F3F1EC"/>
<path d="M335.171 17.7494C335.171 8.93531 328.163 2 319.526 2C312.552 2 306.653 6.76293 304.632 13.1985C302.609 6.76377 296.71 2.16575 289.736 2.16575C281.098 2.16575 274.096 8.90334 274.096 17.7208C274.096 22.1699 275.884 25.3132 278.762 28.6769L304.646 55.1309L330.501 28.6769C333.381 25.3132 335.171 22.1951 335.171 17.7494Z" fill="#F3F1EC"/>
<path d="M365.957 17.7494C365.957 8.93531 359.063 2 350.567 2C343.706 2 337.902 6.76293 335.915 13.1985C333.925 6.76377 328.121 2.16575 321.261 2.16575C312.763 2.16575 305.875 8.90334 305.875 17.7208C305.875 22.1699 307.634 25.3132 310.465 28.6769L335.929 55.1309L361.363 28.6769C364.197 25.3132 365.957 22.1951 365.957 17.7494Z" fill="#F3F1EC"/>
<path d="M396.744 17.7494C396.744 8.93531 389.678 2 380.971 2C373.941 2 367.993 6.76293 365.956 13.1985C363.917 6.76377 357.97 2.16575 350.939 2.16575C342.23 2.16575 335.172 8.90334 335.172 17.7208C335.172 22.1699 336.974 25.3132 339.876 28.6769L365.97 55.1309L392.035 28.6769C394.939 25.3132 396.744 22.1951 396.744 17.7494Z" fill="#F3F1EC"/>
<path d="M427.53 17.7494C427.53 8.93531 420.464 2 411.757 2C404.727 2 398.779 6.76293 396.742 13.1985C394.703 6.76377 388.756 2.16575 381.725 2.16575C373.017 2.16575 365.958 8.90334 365.958 17.7208C365.958 22.1699 367.76 25.3132 370.662 28.6769L396.757 55.1309L422.821 28.6769C425.725 25.3132 427.53 22.1951 427.53 17.7494Z" fill="#F3F1EC"/>
<path d="M456.826 17.7494C456.826 8.93531 449.931 2 441.435 2C434.575 2 428.771 6.76293 426.783 13.1985C424.794 6.76377 418.99 2.16575 412.13 2.16575C403.632 2.16575 396.744 8.90334 396.744 17.7208C396.744 22.1699 398.503 25.3132 401.334 28.6769L426.797 55.1309L452.232 28.6769C455.065 25.3132 456.826 22.1951 456.826 17.7494Z" fill="#F3F1EC"/>
<path d="M488.606 17.7494C488.606 8.93531 481.597 2 472.961 2C465.987 2 460.087 6.76293 458.066 13.1985C456.044 6.76377 450.144 2.16575 443.17 2.16575C434.532 2.16575 427.53 8.90334 427.53 17.7208C427.53 22.1699 429.318 25.3132 432.196 28.6769L458.081 55.1309L483.935 28.6769C486.816 25.3132 488.606 22.1951 488.606 17.7494Z" fill="#F3F1EC"/>
<path d="M518.399 17.7494C518.399 8.93531 511.333 2 502.626 2C495.595 2 489.648 6.76293 487.611 13.1985C485.572 6.76377 479.624 2.16575 472.594 2.16575C463.885 2.16575 456.826 8.90334 456.826 17.7208C456.826 22.1699 458.629 25.3132 461.531 28.6769L487.625 55.1309L513.69 28.6769C516.594 25.3132 518.399 22.1951 518.399 17.7494Z" fill="#F3F1EC"/>
<path d="M547.572 15.7494C547.572 6.93531 540.507 0 531.8 0C524.769 0 518.822 4.76293 516.784 11.1985C514.745 4.76377 508.798 0.165747 501.767 0.165747C493.059 0.165747 486 6.90334 486 15.7208C486 20.1699 487.803 23.3132 490.704 26.6769L516.799 53.1309L542.864 26.6769C545.768 23.3132 547.572 20.1951 547.572 15.7494Z" fill="#F3F1EC"/>
<path d="M576.869 15.7494C576.869 6.93531 569.86 0 561.223 0C554.249 0 548.35 4.76293 546.329 11.1985C544.307 4.76377 538.407 0.165747 531.433 0.165747C522.795 0.165747 515.793 6.90334 515.793 15.7208C515.793 20.1699 517.581 23.3132 520.459 26.6769L546.344 53.1309L572.198 26.6769C575.079 23.3132 576.869 20.1951 576.869 15.7494Z" fill="#F3F1EC"/>
<path d="M607.655 15.7494C607.655 6.93531 600.76 0 592.264 0C585.404 0 579.6 4.76293 577.612 11.1985C575.622 4.76377 569.819 0.165747 562.958 0.165747C554.46 0.165747 547.572 6.90334 547.572 15.7208C547.572 20.1699 549.332 23.3132 552.163 26.6769L577.626 53.1309L603.06 26.6769C605.894 23.3132 607.655 20.1951 607.655 15.7494Z" fill="#F3F1EC"/>
<path d="M638.441 15.7494C638.441 6.93531 631.375 0 622.669 0C615.638 0 609.69 4.76293 607.653 11.1985C605.614 4.76377 599.667 0.165747 592.636 0.165747C583.928 0.165747 576.869 6.90334 576.869 15.7208C576.869 20.1699 578.672 23.3132 581.573 26.6769L607.668 53.1309L633.733 26.6769C636.637 23.3132 638.441 20.1951 638.441 15.7494Z" fill="#F3F1EC"/>
<path d="M669.227 15.7494C669.227 6.93531 662.161 0 653.455 0C646.424 0 640.477 4.76293 638.439 11.1985C636.4 4.76377 630.453 0.165747 623.422 0.165747C614.714 0.165747 607.655 6.90334 607.655 15.7208C607.655 20.1699 609.458 23.3132 612.359 26.6769L638.454 53.1309L664.519 26.6769C667.423 23.3132 669.227 20.1951 669.227 15.7494Z" fill="#F3F1EC"/>
<path d="M698.524 15.7494C698.524 6.93531 691.629 0 683.133 0C676.272 0 670.469 4.76293 668.481 11.1985C666.491 4.76377 660.687 0.165747 653.827 0.165747C645.329 0.165747 638.441 6.90334 638.441 15.7208C638.441 20.1699 640.2 23.3132 643.031 26.6769L668.495 53.1309L693.929 26.6769C696.763 23.3132 698.524 20.1951 698.524 15.7494Z" fill="#F3F1EC"/>
<path d="M730.303 15.7494C730.303 6.93531 723.294 0 714.658 0C707.684 0 701.784 4.76293 699.763 11.1985C697.741 4.76377 691.841 0.165747 684.868 0.165747C676.229 0.165747 669.227 6.90334 669.227 15.7208C669.227 20.1699 671.016 23.3132 673.894 26.6769L699.778 53.1309L725.632 26.6769C728.513 23.3132 730.303 20.1951 730.303 15.7494Z" fill="#F3F1EC"/>
<path d="M760.096 15.7494C760.096 6.93531 753.03 0 744.323 0C737.293 0 731.345 4.76293 729.308 11.1985C727.269 4.76377 721.322 0.165747 714.291 0.165747C705.583 0.165747 698.524 6.90334 698.524 15.7208C698.524 20.1699 700.326 23.3132 703.228 26.6769L729.323 53.1309L755.387 26.6769C758.291 23.3132 760.096 20.1951 760.096 15.7494Z" fill="#F3F1EC"/>
<path d="M791.875 15.7494C791.875 6.93531 784.809 0 776.102 0C769.072 0 763.124 4.76293 761.087 11.1985C759.048 4.76377 753.101 0.165747 746.07 0.165747C737.362 0.165747 730.303 6.90334 730.303 15.7208C730.303 20.1699 732.106 23.3132 735.007 26.6769L761.102 53.1309L787.167 26.6769C790.07 23.3132 791.875 20.1951 791.875 15.7494Z" fill="#F3F1EC"/>
<path d="M821.171 15.7494C821.171 6.93531 814.163 0 805.526 0C798.552 0 792.653 4.76293 790.632 11.1985C788.609 4.76377 782.71 0.165747 775.736 0.165747C767.098 0.165747 760.096 6.90334 760.096 15.7208C760.096 20.1699 761.884 23.3132 764.762 26.6769L790.646 53.1309L816.501 26.6769C819.381 23.3132 821.171 20.1951 821.171 15.7494Z" fill="#F3F1EC"/>
<path d="M851.958 15.7494C851.958 6.93531 845.063 0 836.567 0C829.706 0 823.903 4.76293 821.915 11.1985C819.925 4.76377 814.121 0.165747 807.261 0.165747C798.763 0.165747 791.875 6.90334 791.875 15.7208C791.875 20.1699 793.634 23.3132 796.465 26.6769L821.929 53.1309L847.363 26.6769C850.197 23.3132 851.958 20.1951 851.958 15.7494Z" fill="#F3F1EC"/>
<path d="M882.744 15.7494C882.744 6.93531 875.678 0 866.971 0C859.94 0 853.993 4.76293 851.956 11.1985C849.917 4.76377 843.969 0.165747 836.939 0.165747C828.23 0.165747 821.171 6.90334 821.171 15.7208C821.171 20.1699 822.974 23.3132 825.876 26.6769L851.97 53.1309L878.035 26.6769C880.939 23.3132 882.744 20.1951 882.744 15.7494Z" fill="#F3F1EC"/>
<path d="M913.53 15.7494C913.53 6.93531 906.464 0 897.757 0C890.727 0 884.779 4.76293 882.742 11.1985C880.703 4.76377 874.756 0.165747 867.725 0.165747C859.016 0.165747 851.958 6.90334 851.958 15.7208C851.958 20.1699 853.76 23.3132 856.662 26.6769L882.756 53.1309L908.821 26.6769C911.725 23.3132 913.53 20.1951 913.53 15.7494Z" fill="#F3F1EC"/>
<path d="M942.826 15.7494C942.826 6.93531 935.931 0 927.435 0C920.575 0 914.771 4.76293 912.783 11.1985C910.794 4.76377 904.99 0.165747 898.13 0.165747C889.632 0.165747 882.744 6.90334 882.744 15.7208C882.744 20.1699 884.503 23.3132 887.334 26.6769L912.797 53.1309L938.232 26.6769C941.065 23.3132 942.826 20.1951 942.826 15.7494Z" fill="#F3F1EC"/>
<path d="M974.606 15.7494C974.606 6.93531 967.597 0 958.96 0C951.986 0 946.087 4.76293 944.066 11.1985C942.044 4.76377 936.144 0.165747 929.17 0.165747C920.532 0.165747 913.53 6.90334 913.53 15.7208C913.53 20.1699 915.318 23.3132 918.196 26.6769L944.081 53.1309L969.935 26.6769C972.816 23.3132 974.606 20.1951 974.606 15.7494Z" fill="#F3F1EC"/>
<path d="M1004.4 15.7494C1004.4 6.93531 997.333 0 988.626 0C981.596 0 975.648 4.76293 973.611 11.1985C971.572 4.76377 965.624 0.165747 958.594 0.165747C949.885 0.165747 942.826 6.90334 942.826 15.7208C942.826 20.1699 944.629 23.3132 947.531 26.6769L973.625 53.1309L999.69 26.6769C1002.59 23.3132 1004.4 20.1951 1004.4 15.7494Z" fill="#F3F1EC"/>
<path d="M1037.57 15.7494C1037.57 6.93531 1030.51 0 1021.8 0C1014.77 0 1008.82 4.76293 1006.78 11.1985C1004.75 4.76377 998.798 0.165747 991.767 0.165747C983.059 0.165747 976 6.90334 976 15.7208C976 20.1699 977.803 23.3132 980.704 26.6769L1006.8 53.1309L1032.86 26.6769C1035.77 23.3132 1037.57 20.1951 1037.57 15.7494Z" fill="#F3F1EC"/>
<path d="M1066.87 15.7494C1066.87 6.93531 1059.86 0 1051.22 0C1044.25 0 1038.35 4.76293 1036.33 11.1985C1034.31 4.76377 1028.41 0.165747 1021.43 0.165747C1012.79 0.165747 1005.79 6.90334 1005.79 15.7208C1005.79 20.1699 1007.58 23.3132 1010.46 26.6769L1036.34 53.1309L1062.2 26.6769C1065.08 23.3132 1066.87 20.1951 1066.87 15.7494Z" fill="#F3F1EC"/>
<path d="M1097.65 15.7494C1097.65 6.93531 1090.76 0 1082.26 0C1075.4 0 1069.6 4.76293 1067.61 11.1985C1065.62 4.76377 1059.82 0.165747 1052.96 0.165747C1044.46 0.165747 1037.57 6.90334 1037.57 15.7208C1037.57 20.1699 1039.33 23.3132 1042.16 26.6769L1067.63 53.1309L1093.06 26.6769C1095.89 23.3132 1097.65 20.1951 1097.65 15.7494Z" fill="#F3F1EC"/>
<path d="M1128.44 15.7494C1128.44 6.93531 1121.38 0 1112.67 0C1105.64 0 1099.69 4.76293 1097.65 11.1985C1095.61 4.76377 1089.67 0.165747 1082.64 0.165747C1073.93 0.165747 1066.87 6.90334 1066.87 15.7208C1066.87 20.1699 1068.67 23.3132 1071.57 26.6769L1097.67 53.1309L1123.73 26.6769C1126.64 23.3132 1128.44 20.1951 1128.44 15.7494Z" fill="#F3F1EC"/>
<path d="M1159.23 15.7494C1159.23 6.93531 1152.16 0 1143.45 0C1136.42 0 1130.48 4.76293 1128.44 11.1985C1126.4 4.76377 1120.45 0.165747 1113.42 0.165747C1104.71 0.165747 1097.65 6.90334 1097.65 15.7208C1097.65 20.1699 1099.46 23.3132 1102.36 26.6769L1128.45 53.1309L1154.52 26.6769C1157.42 23.3132 1159.23 20.1951 1159.23 15.7494Z" fill="#F3F1EC"/>
<path d="M1188.52 15.7494C1188.52 6.93531 1181.63 0 1173.13 0C1166.27 0 1160.47 4.76293 1158.48 11.1985C1156.49 4.76377 1150.69 0.165747 1143.83 0.165747C1135.33 0.165747 1128.44 6.90334 1128.44 15.7208C1128.44 20.1699 1130.2 23.3132 1133.03 26.6769L1158.49 53.1309L1183.93 26.6769C1186.76 23.3132 1188.52 20.1951 1188.52 15.7494Z" fill="#F3F1EC"/>
<path d="M1220.3 15.7494C1220.3 6.93531 1213.29 0 1204.66 0C1197.68 0 1191.78 4.76293 1189.76 11.1985C1187.74 4.76377 1181.84 0.165747 1174.87 0.165747C1166.23 0.165747 1159.23 6.90334 1159.23 15.7208C1159.23 20.1699 1161.02 23.3132 1163.89 26.6769L1189.78 53.1309L1215.63 26.6769C1218.51 23.3132 1220.3 20.1951 1220.3 15.7494Z" fill="#F3F1EC"/>
<path d="M1250.1 15.7494C1250.1 6.93531 1243.03 0 1234.32 0C1227.29 0 1221.35 4.76293 1219.31 11.1985C1217.27 4.76377 1211.32 0.165747 1204.29 0.165747C1195.58 0.165747 1188.52 6.90334 1188.52 15.7208C1188.52 20.1699 1190.33 23.3132 1193.23 26.6769L1219.32 53.1309L1245.39 26.6769C1248.29 23.3132 1250.1 20.1951 1250.1 15.7494Z" fill="#F3F1EC"/>
<path d="M1281.87 15.7494C1281.87 6.93531 1274.81 0 1266.1 0C1259.07 0 1253.12 4.76293 1251.09 11.1985C1249.05 4.76377 1243.1 0.165747 1236.07 0.165747C1227.36 0.165747 1220.3 6.90334 1220.3 15.7208C1220.3 20.1699 1222.11 23.3132 1225.01 26.6769L1251.1 53.1309L1277.17 26.6769C1280.07 23.3132 1281.87 20.1951 1281.87 15.7494Z" fill="#F3F1EC"/>
<path d="M1311.17 15.7494C1311.17 6.93531 1304.16 0 1295.53 0C1288.55 0 1282.65 4.76293 1280.63 11.1985C1278.61 4.76377 1272.71 0.165747 1265.74 0.165747C1257.1 0.165747 1250.1 6.90334 1250.1 15.7208C1250.1 20.1699 1251.88 23.3132 1254.76 26.6769L1280.65 53.1309L1306.5 26.6769C1309.38 23.3132 1311.17 20.1951 1311.17 15.7494Z" fill="#F3F1EC"/>
<path d="M1341.96 15.7494C1341.96 6.93531 1335.06 0 1326.57 0C1319.71 0 1313.9 4.76293 1311.91 11.1985C1309.93 4.76377 1304.12 0.165747 1297.26 0.165747C1288.76 0.165747 1281.88 6.90334 1281.88 15.7208C1281.88 20.1699 1283.63 23.3132 1286.47 26.6769L1311.93 53.1309L1337.36 26.6769C1340.2 23.3132 1341.96 20.1951 1341.96 15.7494Z" fill="#F3F1EC"/>
<path d="M1372.74 15.7494C1372.74 6.93531 1365.68 0 1356.97 0C1349.94 0 1343.99 4.76293 1341.96 11.1985C1339.92 4.76377 1333.97 0.165747 1326.94 0.165747C1318.23 0.165747 1311.17 6.90334 1311.17 15.7208C1311.17 20.1699 1312.97 23.3132 1315.88 26.6769L1341.97 53.1309L1368.04 26.6769C1370.94 23.3132 1372.74 20.1951 1372.74 15.7494Z" fill="#F3F1EC"/>
<path d="M1403.53 15.7494C1403.53 6.93531 1396.46 0 1387.76 0C1380.73 0 1374.78 4.76293 1372.74 11.1985C1370.7 4.76377 1364.76 0.165747 1357.72 0.165747C1349.02 0.165747 1341.96 6.90334 1341.96 15.7208C1341.96 20.1699 1343.76 23.3132 1346.66 26.6769L1372.76 53.1309L1398.82 26.6769C1401.73 23.3132 1403.53 20.1951 1403.53 15.7494Z" fill="#F3F1EC"/>
<path d="M1432.83 15.7494C1432.83 6.93531 1425.93 0 1417.44 0C1410.57 0 1404.77 4.76293 1402.78 11.1985C1400.79 4.76377 1394.99 0.165747 1388.13 0.165747C1379.63 0.165747 1372.74 6.90334 1372.74 15.7208C1372.74 20.1699 1374.5 23.3132 1377.33 26.6769L1402.8 53.1309L1428.23 26.6769C1431.07 23.3132 1432.83 20.1951 1432.83 15.7494Z" fill="#F3F1EC"/>
<path d="M1464.61 15.7494C1464.61 6.93531 1457.6 0 1448.96 0C1441.99 0 1436.09 4.76293 1434.07 11.1985C1432.04 4.76377 1426.14 0.165747 1419.17 0.165747C1410.53 0.165747 1403.53 6.90334 1403.53 15.7208C1403.53 20.1699 1405.32 23.3132 1408.2 26.6769L1434.08 53.1309L1459.94 26.6769C1462.82 23.3132 1464.61 20.1951 1464.61 15.7494Z" fill="#F3F1EC"/>
<path d="M1494.4 15.7494C1494.4 6.93531 1487.33 0 1478.63 0C1471.6 0 1465.65 4.76293 1463.61 11.1985C1461.57 4.76377 1455.62 0.165747 1448.59 0.165747C1439.89 0.165747 1432.83 6.90334 1432.83 15.7208C1432.83 20.1699 1434.63 23.3132 1437.53 26.6769L1463.63 53.1309L1489.69 26.6769C1492.59 23.3132 1494.4 20.1951 1494.4 15.7494Z" fill="#F3F1EC"/>
</svg>
