<svg width="390" height="54" viewBox="0 0 390 54" fill="none" xmlns="http://www.w3.org/2000/svg">
<path d="M30.6565 15.7494C30.6565 6.93531 23.5908 0 14.884 0C7.85331 0 1.90588 4.76293 -0.131351 11.1985C-2.1703 4.76377 -8.11773 0.165747 -15.1484 0.165747C-23.8569 0.165747 -30.9158 6.90334 -30.9158 15.7208C-30.9158 20.1699 -29.113 23.3132 -26.2116 26.6769L-0.116804 53.1309L25.948 26.6769C28.852 23.3132 30.6565 20.1951 30.6565 15.7494Z" fill="#F3F1EC"/>
<path d="M59.953 15.7494C59.953 6.93531 52.9442 0 44.3076 0C37.3337 0 31.4342 4.76293 29.4134 11.1985C27.3909 4.76377 21.4914 0.165747 14.5175 0.165747C5.87921 0.165747 -1.12274 6.90334 -1.12274 15.7208C-1.12274 20.1699 0.665515 23.3132 3.54353 26.6769L29.4279 53.1309L55.2825 26.6769C58.163 23.3132 59.953 20.1951 59.953 15.7494Z" fill="#F3F1EC"/>
<path d="M90.7392 15.7494C90.7392 6.93531 83.8444 0 75.3482 0C68.4877 0 62.6841 4.76293 60.6962 11.1985C58.7066 4.76377 52.903 0.165747 46.0425 0.165747C37.5447 0.165747 30.6566 6.90334 30.6566 15.7208C30.6566 20.1699 32.4157 23.3132 35.247 26.6769L60.7104 53.1309L86.1446 26.6769C88.9783 23.3132 90.7392 20.1951 90.7392 15.7494Z" fill="#F3F1EC"/>
<path d="M121.525 15.7494C121.525 6.93531 114.46 0 105.753 0C98.7221 0 92.7747 4.76293 90.7374 11.1985C88.6985 4.76377 82.751 0.165747 75.7204 0.165747C67.0119 0.165747 59.953 6.90334 59.953 15.7208C59.953 20.1699 61.7558 23.3132 64.6572 26.6769L90.752 53.1309L116.817 26.6769C119.721 23.3132 121.525 20.1951 121.525 15.7494Z" fill="#F3F1EC"/>
<path d="M152.311 15.7494C152.311 6.93531 145.246 0 136.539 0C129.508 0 123.561 4.76293 121.523 11.1985C119.485 4.76377 113.537 0.165747 106.506 0.165747C97.798 0.165747 90.7391 6.90334 90.7391 15.7208C90.7391 20.1699 92.5419 23.3132 95.4433 26.6769L121.538 53.1309L147.603 26.6769C150.507 23.3132 152.311 20.1951 152.311 15.7494Z" fill="#F3F1EC"/>
<path d="M181.608 15.7494C181.608 6.93531 174.713 0 166.217 0C159.356 0 153.553 4.76293 151.565 11.1985C149.575 4.76377 143.772 0.165747 136.911 0.165747C128.413 0.165747 121.525 6.90334 121.525 15.7208C121.525 20.1699 123.284 23.3132 126.116 26.6769L151.579 53.1309L177.013 26.6769C179.847 23.3132 181.608 20.1951 181.608 15.7494Z" fill="#F3F1EC"/>
<path d="M213.387 15.7494C213.387 6.93531 206.378 0 197.742 0C190.768 0 184.868 4.76293 182.848 11.1985C180.825 4.76377 174.926 0.165747 167.952 0.165747C159.313 0.165747 152.311 6.90334 152.311 15.7208C152.311 20.1699 154.1 23.3132 156.978 26.6769L182.862 53.1309L208.717 26.6769C211.597 23.3132 213.387 20.1951 213.387 15.7494Z" fill="#F3F1EC"/>
<path d="M243.18 15.7494C243.18 6.93531 236.114 0 227.408 0C220.377 0 214.429 4.76293 212.392 11.1985C210.353 4.76377 204.406 0.165747 197.375 0.165747C188.667 0.165747 181.608 6.90334 181.608 15.7208C181.608 20.1699 183.411 23.3132 186.312 26.6769L212.407 53.1309L238.472 26.6769C241.376 23.3132 243.18 20.1951 243.18 15.7494Z" fill="#F3F1EC"/>
<path d="M274.959 15.7494C274.959 6.93531 267.894 0 259.187 0C252.156 0 246.209 4.76293 244.171 11.1985C242.132 4.76377 236.185 0.165747 229.154 0.165747C220.446 0.165747 213.387 6.90334 213.387 15.7208C213.387 20.1699 215.19 23.3132 218.091 26.6769L244.186 53.1309L270.251 26.6769C273.155 23.3132 274.959 20.1951 274.959 15.7494Z" fill="#F3F1EC"/>
<path d="M304.256 15.7494C304.256 6.93531 297.247 0 288.61 0C281.636 0 275.737 4.76293 273.716 11.1985C271.694 4.76377 265.794 0.165747 258.82 0.165747C250.182 0.165747 243.18 6.90334 243.18 15.7208C243.18 20.1699 244.968 23.3132 247.846 26.6769L273.731 53.1309L299.585 26.6769C302.466 23.3132 304.256 20.1951 304.256 15.7494Z" fill="#F3F1EC"/>
<path d="M335.042 15.7494C335.042 6.93531 328.147 0 319.651 0C312.79 0 306.987 4.76293 304.999 11.1985C303.009 4.76377 297.206 0.165747 290.345 0.165747C281.847 0.165747 274.959 6.90334 274.959 15.7208C274.959 20.1699 276.718 23.3132 279.55 26.6769L305.013 53.1309L330.447 26.6769C333.281 23.3132 335.042 20.1951 335.042 15.7494Z" fill="#F3F1EC"/>
<path d="M365.828 15.7494C365.828 6.93531 358.762 0 350.055 0C343.025 0 337.077 4.76293 335.04 11.1985C333.001 4.76377 327.054 0.165747 320.023 0.165747C311.315 0.165747 304.256 6.90334 304.256 15.7208C304.256 20.1699 306.059 23.3132 308.96 26.6769L335.055 53.1309L361.12 26.6769C364.023 23.3132 365.828 20.1951 365.828 15.7494Z" fill="#F3F1EC"/>
<path d="M396.614 15.7494C396.614 6.93531 389.548 0 380.842 0C373.811 0 367.864 4.76293 365.826 11.1985C363.787 4.76377 357.84 0.165747 350.809 0.165747C342.101 0.165747 335.042 6.90334 335.042 15.7208C335.042 20.1699 336.845 23.3132 339.746 26.6769L365.841 53.1309L391.906 26.6769C394.81 23.3132 396.614 20.1951 396.614 15.7494Z" fill="#F3F1EC"/>
<path d="M425.91 15.7494C425.91 6.93531 419.016 0 410.52 0C403.659 0 397.855 4.76293 395.868 11.1985C393.878 4.76377 388.074 0.165747 381.214 0.165747C372.716 0.165747 365.828 6.90334 365.828 15.7208C365.828 20.1699 367.587 23.3132 370.418 26.6769L395.882 53.1309L421.316 26.6769C424.15 23.3132 425.91 20.1951 425.91 15.7494Z" fill="#F3F1EC"/>
</svg>
