<svg width="18" height="18" viewBox="0 0 18 18" fill="none" xmlns="http://www.w3.org/2000/svg">
<path d="M9.17578 17.9998C9.11602 17.9998 9.05625 17.9998 8.99648 17.9998C7.58672 18.0033 6.28242 17.9681 5.01328 17.8908C3.84961 17.8205 2.79141 17.4197 1.94414 16.7307C1.12852 16.0662 0.573047 15.1662 0.288281 14.0588C0.0421875 13.0956 0.028125 12.1464 0.0175781 11.2324C0.0105469 10.5714 0.00351563 9.79451 0 9C0.00351563 8.20549 0.0105469 7.42504 0.0210938 6.76764C0.0351562 5.8536 0.0457031 4.90441 0.291797 3.94115C0.573047 2.83376 1.13203 1.93378 1.94766 1.26935C2.79141 0.580302 3.85312 0.179531 5.0168 0.109221C6.28242 0.0318791 7.58672 -0.00327616 9 0.000239366C10.4098 -0.00327616 11.7141 0.0318791 12.9832 0.109221C14.1469 0.179531 15.2051 0.580302 16.0523 1.26935C16.868 1.93378 17.4234 2.83376 17.7082 3.94115C17.9543 4.90441 17.9684 5.8536 17.9789 6.76764C17.9895 7.42504 17.9965 8.20197 18 8.99648V9C17.9965 9.79099 17.9895 10.5714 17.9789 11.2288C17.9648 12.1429 17.9543 13.0921 17.7082 14.0553C17.427 15.1627 16.868 16.0627 16.0523 16.7271C15.2086 17.4162 14.1469 17.8169 12.9832 17.8873C11.7703 17.9646 10.5223 17.9998 9.17578 17.9998ZM8.99648 16.5935C10.3852 16.5971 11.6578 16.5619 12.8953 16.4881C13.7742 16.4353 14.5371 16.1506 15.1594 15.6408C15.7359 15.1698 16.1332 14.5194 16.3406 13.7108C16.5445 12.9093 16.5586 12.0444 16.5691 11.2113C16.5797 10.5574 16.5867 9.78396 16.5902 9C16.5867 8.21604 16.5797 7.44262 16.5691 6.78873C16.5586 5.95555 16.5445 5.09424 16.3406 4.28919C16.1332 3.48062 15.7359 2.83024 15.1594 2.35916C14.5336 1.84941 13.7742 1.56465 12.8953 1.51192C11.6578 1.43809 10.3816 1.40294 8.99648 1.40645C7.60781 1.40294 6.33516 1.43809 5.09766 1.51192C4.21875 1.56465 3.45586 1.84941 2.83359 2.35916C2.25703 2.83024 1.85977 3.48061 1.65586 4.2927C1.45195 5.09424 1.43789 5.95906 1.42734 6.79225C1.4168 7.44613 1.40977 8.21955 1.40625 9.00351C1.40977 9.78396 1.4168 10.5574 1.42734 11.2113C1.43789 12.0444 1.45195 12.9058 1.65586 13.7108C1.86328 14.5194 2.26055 15.1698 2.83711 15.6408C3.46289 16.1506 4.22227 16.4353 5.10117 16.4881C6.33867 16.5619 7.61484 16.5971 8.99648 16.5935ZM8.96484 13.3944C6.54258 13.3944 4.57031 11.4222 4.57031 9C4.57031 6.5778 6.54258 4.60559 8.96484 4.60559C11.3871 4.60559 13.3594 6.5778 13.3594 9C13.3594 11.4222 11.3871 13.3944 8.96484 13.3944ZM8.96484 6.0118C7.31602 6.0118 5.97656 7.35121 5.97656 9C5.97656 10.6488 7.31602 11.9882 8.96484 11.9882C10.6137 11.9882 11.9531 10.6488 11.9531 9C11.9531 7.35121 10.6137 6.0118 8.96484 6.0118ZM13.8516 3.19937C13.268 3.19937 12.7969 3.67045 12.7969 4.25403C12.7969 4.83761 13.268 5.30869 13.8516 5.30869C14.4352 5.30869 14.9062 4.83761 14.9062 4.25403C14.9062 3.67045 14.4352 3.19937 13.8516 3.19937Z" fill="white"/>
</svg>
