<svg width="350" height="141" viewBox="0 0 350 141" fill="none" xmlns="http://www.w3.org/2000/svg">
<path d="M344.267 73.619C344.161 79.5312 339.511 85.2113 330.865 90.3955C322.245 95.5637 309.79 100.152 294.389 103.924C263.595 111.466 221.137 115.716 174.319 114.875C127.502 114.034 85.2235 108.262 54.7203 99.6194C39.465 95.297 27.1831 90.2644 18.7542 84.7899C10.2994 79.2986 5.85668 73.4552 5.96287 67.543C6.06905 61.6308 10.7188 55.9507 19.3653 50.7665C27.9853 45.5983 40.4401 41.0099 55.8407 37.2381C86.6346 29.6963 129.093 25.4463 175.911 26.2871C222.728 27.128 265.006 32.9 295.51 41.5426C310.765 45.865 323.047 50.8977 331.476 56.3721C339.931 61.8634 344.373 67.7068 344.267 73.619Z" stroke="#9EAF7C"/>
<path d="M342.293 44.6333C343.199 50.4765 339.59 56.8684 331.958 63.4555C324.349 70.0224 312.863 76.6741 298.335 83.0252C269.286 95.7245 228.181 107.176 181.91 114.358C135.638 121.54 92.9961 123.087 61.4639 119.791C45.6941 118.142 32.7322 115.285 23.4909 111.334C14.2213 107.37 8.84423 102.373 7.93729 96.5297C7.03036 90.6865 10.6396 84.2946 18.2717 77.7075C25.8804 71.1406 37.3664 64.4889 51.8946 58.1377C80.944 45.4384 122.049 33.9866 168.32 26.8047C214.592 19.6227 257.234 18.0759 288.766 21.3722C304.536 23.0207 317.498 25.8777 326.739 29.8293C336.009 33.793 341.386 38.7901 342.293 44.6333Z" stroke="#9EAF7C"/>
</svg>
