<svg width="18" height="18" viewBox="0 0 18 18" fill="none" xmlns="http://www.w3.org/2000/svg">
<g clip-path="url(#clip0_5_239)">
<path fill-rule="evenodd" clip-rule="evenodd" d="M4.56737 15.2974C4.67152 15.2678 4.78067 15.2601 4.88795 15.2748C4.99522 15.2895 5.09829 15.3262 5.19066 15.3827C6.74637 16.3096 8.58712 16.6361 10.3667 16.3009C12.1463 15.9656 13.7421 14.9917 14.8539 13.5624C15.9658 12.133 16.517 10.3466 16.4041 8.53926C16.2911 6.7319 15.5217 5.02809 14.2405 3.74829C12.9593 2.46848 11.2547 1.70087 9.44724 1.58983C7.63976 1.47879 5.85399 2.03197 4.4258 3.14533C2.9976 4.25869 2.02541 5.85551 1.69207 7.63545C1.35872 9.41539 1.6872 11.2558 2.61571 12.8105C2.67201 12.9026 2.70859 13.0054 2.72314 13.1123C2.73769 13.2193 2.72989 13.3281 2.70023 13.4319C2.48229 14.203 1.95642 16.0436 1.95642 16.0436L4.56737 15.2974ZM1.25957 13.5919C0.140866 11.7061 -0.250942 9.47679 0.157722 7.32258C0.566386 5.16836 1.74741 3.23742 3.47902 1.89236C5.21063 0.547301 7.37371 -0.119355 9.56207 0.0175786C11.7504 0.154512 13.8135 1.08562 15.364 2.63604C16.9144 4.18647 17.8455 6.24957 17.9824 8.43793C18.1194 10.6263 17.4527 12.7894 16.1076 14.521C14.7626 16.2526 12.8316 17.4336 10.6774 17.8423C8.52321 18.2509 6.2939 17.8591 4.40812 16.7404C4.40812 16.7404 1.91299 17.4533 0.677364 17.8066C0.610235 17.8258 0.539215 17.8266 0.471652 17.8091C0.40409 17.7915 0.34244 17.7563 0.293084 17.7069C0.243727 17.6576 0.208458 17.5959 0.190925 17.5283C0.173393 17.4608 0.174235 17.3898 0.193363 17.3226L1.25957 13.5919Z" fill="white"/>
<path fill-rule="evenodd" clip-rule="evenodd" d="M4.68788 6.56937C4.80957 8.3214 5.55729 9.97122 6.79454 11.2177C8.03178 12.4641 9.67603 13.224 11.4271 13.3587H11.4279C11.7075 13.3803 11.9884 13.3412 12.2514 13.2439C12.5144 13.1466 12.7533 12.9936 12.9515 12.7953L13.2246 12.5221C13.3535 12.3931 13.426 12.2182 13.4261 12.0358V11.4559C13.4261 11.3832 13.4058 11.312 13.3676 11.2501C13.3294 11.1883 13.2747 11.1383 13.2097 11.1058L11.4651 10.2336C11.3916 10.1968 11.3084 10.1841 11.2273 10.1972C11.1462 10.2103 11.0712 10.2487 11.0131 10.3068L10.2541 11.0658C10.2085 11.1114 10.1525 11.145 10.0908 11.1637C10.0292 11.1824 9.96393 11.1856 9.90076 11.1731L9.89724 11.1723C9.13973 11.0208 8.44402 10.6485 7.89777 10.1022C7.35153 9.55598 6.97921 8.86027 6.82773 8.10276L6.82695 8.09924C6.81439 8.03607 6.81761 7.97078 6.83631 7.90915C6.85501 7.84752 6.88862 7.79146 6.93416 7.74592L7.69322 6.98686C7.75133 6.92875 7.78966 6.85383 7.8028 6.77272C7.81593 6.6916 7.80319 6.60841 7.76639 6.53494L6.89425 4.79027C6.86171 4.72526 6.81172 4.67058 6.74987 4.63237C6.68802 4.59415 6.61676 4.57391 6.54406 4.5739H6.05106C5.93399 4.57393 5.81823 4.59853 5.71127 4.64612C5.60431 4.6937 5.50853 4.7632 5.43012 4.85013L5.17031 5.13889C4.99947 5.32848 4.86854 5.55051 4.78532 5.79177C4.7021 6.03302 4.6683 6.28856 4.68592 6.54316L4.68788 6.56937Z" fill="white"/>
</g>
<defs>
<clipPath id="clip0_5_239">
<rect width="18" height="18" fill="white"/>
</clipPath>
</defs>
</svg>
