<svg width="273" height="5" viewBox="0 0 273 5" fill="none" xmlns="http://www.w3.org/2000/svg">
<path d="M136.5 1C143.277 1 143.277 4 150.055 4C156.832 4 156.832 1 163.61 1C170.387 1 170.387 4 177.148 4C183.926 4 183.926 1 190.687 1C197.465 1 197.465 4 204.226 4C211.004 4 211.004 1 217.781 1C224.558 1 224.558 4 231.336 4C238.113 4 238.113 1 244.89 1C251.668 1 251.668 4 258.445 4C265.222 4 265.222 1 272 1" stroke="#9EAF7C" stroke-width="2" stroke-miterlimit="10" stroke-linecap="round"/>
<path d="M1 1C7.77739 1 7.77739 4 14.5548 4C21.3322 4 21.3322 1 28.1095 1C34.8869 1 34.8869 4 41.6484 4C48.426 4 48.426 1 55.1873 1C61.9649 1 61.9649 4 68.7261 4C75.5037 4 75.5037 1 82.2807 1C89.0583 1 89.0582 4 95.8358 4C102.613 4 102.613 1 109.39 1C116.168 1 116.168 4 122.945 4C129.722 4 129.722 1 136.5 1" stroke="#9EAF7C" stroke-width="2" stroke-miterlimit="10" stroke-linecap="round"/>
</svg>
