<svg width="275" height="7" viewBox="0 0 275 7" fill="none" xmlns="http://www.w3.org/2000/svg">
<path d="M137.577 1.47119C144.397 1.47119 144.397 5.65388 151.217 5.65388C158.038 5.65388 158.038 1.47119 164.858 1.47119C171.678 1.47119 171.678 5.65388 178.482 5.65388C185.303 5.65388 185.303 1.47119 192.107 1.47119C198.927 1.47119 198.927 5.65388 205.731 5.65388C212.551 5.65388 212.551 1.47119 219.371 1.47119C226.191 1.47119 226.191 5.65388 233.012 5.65388C239.832 5.65388 239.832 1.47119 246.652 1.47119C253.472 1.47119 253.472 5.65388 260.293 5.65388C267.113 5.65388 267.113 1.47119 273.933 1.47119" stroke="#9EAF7C" stroke-width="2" stroke-miterlimit="10" stroke-linecap="round"/>
<path d="M1.22119 1.47119C8.04138 1.47119 8.04138 5.65388 14.8616 5.65388C21.6818 5.65388 21.6818 1.47119 28.5019 1.47119C35.3221 1.47119 35.3221 5.65388 42.1263 5.65388C48.9467 5.65388 48.9467 1.47119 55.7507 1.47119C62.5711 1.47119 62.5711 5.65388 69.3751 5.65388C76.1954 5.65388 76.1954 1.47119 83.0152 1.47119C89.8356 1.47119 89.8356 5.65388 96.6559 5.65388C103.476 5.65388 103.476 1.47119 110.296 1.47119C117.116 1.47119 117.116 5.65388 123.937 5.65388C130.757 5.65388 130.757 1.47119 137.577 1.47119" stroke="#9EAF7C" stroke-width="2" stroke-miterlimit="10" stroke-linecap="round"/>
</svg>
