<svg width="390" height="54" viewBox="0 0 390 54" fill="none" xmlns="http://www.w3.org/2000/svg">
<path d="M30.6565 37.3815C30.6565 46.1955 23.5908 53.1309 14.884 53.1309C7.85331 53.1309 1.90588 48.3679 -0.131351 41.9324C-2.1703 48.3671 -8.11773 52.9651 -15.1484 52.9651C-23.8569 52.9651 -30.9158 46.2275 -30.9158 37.4101C-30.9158 32.961 -29.113 29.8177 -26.2116 26.4539L-0.116804 -4.95911e-05L25.948 26.4539C28.852 29.8177 30.6565 32.9357 30.6565 37.3815Z" fill="#F3F1EC"/>
<path d="M59.953 37.3815C59.953 46.1955 52.9442 53.1309 44.3076 53.1309C37.3337 53.1309 31.4342 48.3679 29.4134 41.9324C27.3909 48.3671 21.4914 52.9651 14.5175 52.9651C5.87921 52.9651 -1.12274 46.2275 -1.12274 37.4101C-1.12274 32.961 0.665515 29.8177 3.54353 26.4539L29.4279 -4.95911e-05L55.2825 26.4539C58.163 29.8177 59.953 32.9357 59.953 37.3815Z" fill="#F3F1EC"/>
<path d="M90.7392 37.3815C90.7392 46.1955 83.8444 53.1309 75.3482 53.1309C68.4877 53.1309 62.6841 48.3679 60.6962 41.9324C58.7066 48.3671 52.903 52.9651 46.0425 52.9651C37.5447 52.9651 30.6566 46.2275 30.6566 37.4101C30.6566 32.961 32.4157 29.8177 35.247 26.4539L60.7104 -4.95911e-05L86.1446 26.4539C88.9783 29.8177 90.7392 32.9357 90.7392 37.3815Z" fill="#F3F1EC"/>
<path d="M121.525 37.3815C121.525 46.1955 114.46 53.1309 105.753 53.1309C98.7221 53.1309 92.7747 48.3679 90.7374 41.9324C88.6985 48.3671 82.751 52.9651 75.7204 52.9651C67.0119 52.9651 59.953 46.2275 59.953 37.4101C59.953 32.961 61.7558 29.8177 64.6572 26.4539L90.752 -4.95911e-05L116.817 26.4539C119.721 29.8177 121.525 32.9357 121.525 37.3815Z" fill="#F3F1EC"/>
<path d="M152.311 37.3815C152.311 46.1955 145.246 53.1309 136.539 53.1309C129.508 53.1309 123.561 48.3679 121.523 41.9324C119.485 48.3671 113.537 52.9651 106.506 52.9651C97.798 52.9651 90.7391 46.2275 90.7391 37.4101C90.7391 32.961 92.5419 29.8177 95.4433 26.4539L121.538 -4.95911e-05L147.603 26.4539C150.507 29.8177 152.311 32.9357 152.311 37.3815Z" fill="#F3F1EC"/>
<path d="M181.608 37.3815C181.608 46.1955 174.713 53.1309 166.217 53.1309C159.356 53.1309 153.553 48.3679 151.565 41.9324C149.575 48.3671 143.772 52.9651 136.911 52.9651C128.413 52.9651 121.525 46.2275 121.525 37.4101C121.525 32.961 123.284 29.8177 126.116 26.4539L151.579 -4.95911e-05L177.013 26.4539C179.847 29.8177 181.608 32.9357 181.608 37.3815Z" fill="#F3F1EC"/>
<path d="M213.387 37.3815C213.387 46.1955 206.378 53.1309 197.742 53.1309C190.768 53.1309 184.868 48.3679 182.848 41.9324C180.825 48.3671 174.926 52.9651 167.952 52.9651C159.313 52.9651 152.311 46.2275 152.311 37.4101C152.311 32.961 154.1 29.8177 156.978 26.4539L182.862 -4.95911e-05L208.717 26.4539C211.597 29.8177 213.387 32.9357 213.387 37.3815Z" fill="#F3F1EC"/>
<path d="M243.18 37.3815C243.18 46.1955 236.114 53.1309 227.408 53.1309C220.377 53.1309 214.43 48.3679 212.392 41.9324C210.353 48.3671 204.406 52.9651 197.375 52.9651C188.667 52.9651 181.608 46.2275 181.608 37.4101C181.608 32.961 183.411 29.8177 186.312 26.4539L212.407 -4.95911e-05L238.472 26.4539C241.376 29.8177 243.18 32.9357 243.18 37.3815Z" fill="#F3F1EC"/>
<path d="M274.959 37.3815C274.959 46.1955 267.894 53.1309 259.187 53.1309C252.156 53.1309 246.209 48.3679 244.171 41.9324C242.132 48.3671 236.185 52.9651 229.154 52.9651C220.446 52.9651 213.387 46.2275 213.387 37.4101C213.387 32.961 215.19 29.8177 218.091 26.4539L244.186 -4.95911e-05L270.251 26.4539C273.155 29.8177 274.959 32.9357 274.959 37.3815Z" fill="#F3F1EC"/>
<path d="M304.256 37.3815C304.256 46.1955 297.247 53.1309 288.61 53.1309C281.636 53.1309 275.737 48.3679 273.716 41.9324C271.694 48.3671 265.794 52.9651 258.82 52.9651C250.182 52.9651 243.18 46.2275 243.18 37.4101C243.18 32.961 244.968 29.8177 247.846 26.4539L273.731 -4.95911e-05L299.585 26.4539C302.466 29.8177 304.256 32.9357 304.256 37.3815Z" fill="#F3F1EC"/>
<path d="M335.042 37.3815C335.042 46.1955 328.147 53.1309 319.651 53.1309C312.79 53.1309 306.987 48.3679 304.999 41.9324C303.009 48.3671 297.206 52.9651 290.345 52.9651C281.847 52.9651 274.959 46.2275 274.959 37.4101C274.959 32.961 276.718 29.8177 279.55 26.4539L305.013 -4.95911e-05L330.447 26.4539C333.281 29.8177 335.042 32.9357 335.042 37.3815Z" fill="#F3F1EC"/>
<path d="M365.828 37.3815C365.828 46.1955 358.762 53.1309 350.055 53.1309C343.025 53.1309 337.077 48.3679 335.04 41.9324C333.001 48.3671 327.054 52.9651 320.023 52.9651C311.315 52.9651 304.256 46.2275 304.256 37.4101C304.256 32.961 306.059 29.8177 308.96 26.4539L335.055 -4.95911e-05L361.12 26.4539C364.023 29.8177 365.828 32.9357 365.828 37.3815Z" fill="#F3F1EC"/>
<path d="M396.614 37.3815C396.614 46.1955 389.548 53.1309 380.842 53.1309C373.811 53.1309 367.864 48.3679 365.826 41.9324C363.787 48.3671 357.84 52.9651 350.809 52.9651C342.101 52.9651 335.042 46.2275 335.042 37.4101C335.042 32.961 336.845 29.8177 339.746 26.4539L365.841 -4.95911e-05L391.906 26.4539C394.81 29.8177 396.614 32.9357 396.614 37.3815Z" fill="#F3F1EC"/>
<path d="M425.91 37.3815C425.91 46.1955 419.016 53.1309 410.52 53.1309C403.659 53.1309 397.855 48.3679 395.868 41.9324C393.878 48.3671 388.074 52.9651 381.214 52.9651C372.716 52.9651 365.828 46.2275 365.828 37.4101C365.828 32.961 367.587 29.8177 370.418 26.4539L395.882 -4.95911e-05L421.316 26.4539C424.15 29.8177 425.91 32.9357 425.91 37.3815Z" fill="#F3F1EC"/>
</svg>
