<svg width="165" height="5" viewBox="0 0 165 5" fill="none" xmlns="http://www.w3.org/2000/svg">
<path d="M82.6111 1.47949C86.682 1.47949 86.682 4 90.7528 4C94.8237 4 94.8237 1.47949 98.8946 1.47949C102.965 1.47949 102.965 4 107.027 4C111.098 4 111.098 1.47949 115.159 1.47949C119.23 1.47949 119.23 4 123.291 4C127.362 4 127.362 1.47949 131.433 1.47949C135.504 1.47949 135.504 4 139.575 4C143.645 4 143.645 1.47949 147.716 1.47949C151.787 1.47949 151.787 4 155.858 4C159.929 4 159.929 1.47949 164 1.47949" stroke="#9EAF7C" stroke-width="2" stroke-miterlimit="10" stroke-linecap="round"/>
<path d="M1.22217 1.47949C5.29305 1.47949 5.29305 4 9.36392 4C13.4348 4 13.4348 1.47949 17.5057 1.47949C21.5766 1.47949 21.5766 4 25.6379 4C29.7089 4 29.7089 1.47949 33.7701 1.47949C37.8411 1.47949 37.8411 4 41.9023 4C45.9733 4 45.9733 1.47949 50.0439 1.47949C54.1149 1.47949 54.1149 4 58.1859 4C62.2565 4 62.2565 1.47949 66.3275 1.47949C70.3985 1.47949 70.3985 4 74.4694 4C78.5401 4 78.5401 1.47949 82.6111 1.47949" stroke="#9EAF7C" stroke-width="2" stroke-miterlimit="10" stroke-linecap="round"/>
</svg>
